<svg width="183" height="30" viewBox="0 0 183 30" fill="none" xmlns="http://www.w3.org/2000/svg">
<path d="M21.25 2.5H8.75C5.29822 2.5 2.5 5.29822 2.5 8.75V21.25C2.5 24.7018 5.29822 27.5 8.75 27.5H21.25C24.7018 27.5 27.5 24.7018 27.5 21.25V8.75C27.5 5.29822 24.7018 2.5 21.25 2.5Z" stroke="white" stroke-width="2" stroke-linecap="round" stroke-linejoin="round"/>
<path d="M20.0001 14.2124C20.1544 15.2527 19.9767 16.3152 19.4923 17.2487C19.0079 18.1822 18.2416 18.9392 17.3022 19.412C16.3628 19.8848 15.2982 20.0494 14.2599 19.8823C13.2215 19.7152 12.2623 19.225 11.5187 18.4813C10.775 17.7377 10.2848 16.7785 10.1177 15.7402C9.95063 14.7018 10.1152 13.6373 10.588 12.6979C11.0609 11.7585 11.8179 10.9921 12.7514 10.5077C13.6849 10.0233 14.7473 9.84562 15.7876 9.99989C16.8488 10.1572 17.8312 10.6517 18.5897 11.4103C19.3483 12.1688 19.8428 13.1512 20.0001 14.2124Z" stroke="white" stroke-width="2" stroke-linecap="round" stroke-linejoin="round"/>
<path d="M21.875 8.125H21.8875" stroke="white" stroke-width="2" stroke-linecap="round" stroke-linejoin="round"/>
<path d="M79.75 3.74987C78.553 4.59422 77.2276 5.24001 75.825 5.66237C75.0722 4.79676 74.0717 4.18324 72.9588 3.90478C71.8459 3.62632 70.6744 3.69637 69.6026 4.10544C68.5308 4.51451 67.6106 5.24288 66.9662 6.19202C66.3219 7.14116 65.9846 8.26529 66 9.41237V10.6624C63.8033 10.7193 61.6266 10.2321 59.6638 9.24418C57.7009 8.25622 56.0129 6.79817 54.75 4.99987C54.75 4.99987 49.75 16.2499 61 21.2499C58.4257 22.9973 55.3589 23.8735 52.25 23.7499C63.5 29.9999 77.25 23.7499 77.25 9.37487C77.2488 9.02669 77.2154 8.67937 77.15 8.33737C78.4258 7.07924 79.326 5.49077 79.75 3.74987V3.74987Z" stroke="white" stroke-width="2" stroke-linecap="round" stroke-linejoin="round"/>
<path d="M124.5 2.5H120.75C119.092 2.5 117.503 3.15848 116.331 4.33058C115.158 5.50269 114.5 7.0924 114.5 8.75V12.5H110.75V17.5H114.5V27.5H119.5V17.5H123.25L124.5 12.5H119.5V8.75C119.5 8.41848 119.632 8.10054 119.866 7.86612C120.101 7.6317 120.418 7.5 120.75 7.5H124.5V2.5Z" stroke="white" stroke-width="2" stroke-linecap="round" stroke-linejoin="round"/>
<path d="M181.175 8.025C181.026 7.43176 180.724 6.88821 180.298 6.44926C179.873 6.0103 179.338 5.69148 178.75 5.525C176.6 5 168 5 168 5C168 5 159.4 5 157.25 5.575C156.662 5.74148 156.127 6.0603 155.702 6.49926C155.276 6.93821 154.973 7.48176 154.825 8.075C154.432 10.2569 154.239 12.4704 154.25 14.6875C154.236 16.9213 154.428 19.1516 154.825 21.35C154.989 21.9248 155.298 22.4477 155.723 22.8681C156.147 23.2885 156.674 23.5923 157.25 23.75C159.4 24.325 168 24.325 168 24.325C168 24.325 176.6 24.325 178.75 23.75C179.338 23.5835 179.873 23.2647 180.298 22.8257C180.724 22.3868 181.026 21.8432 181.175 21.25C181.565 19.0845 181.758 16.8879 181.75 14.6875C181.764 12.4537 181.572 10.2234 181.175 8.025V8.025Z" stroke="white" stroke-width="2" stroke-linecap="round" stroke-linejoin="round"/>
<path d="M165.188 18.7751L172.375 14.6876L165.188 10.6001V18.7751Z" stroke="white" stroke-width="2" stroke-linecap="round" stroke-linejoin="round"/>
</svg>
